<mxfile host="app.diagrams.net" modified="2024-01-08T08:47:24.622Z" agent="Mozilla/5.0 (Windows NT 10.0; Win64; x64) AppleWebKit/537.36 (KHTML, like Gecko) Chrome/119.0.0.0 Safari/537.36" version="22.1.17" etag="anysrDHJYlZZ6BCXUub7" type="github">
  <diagram name="第 1 页" id="Z_27IF7Wb86w0Z_xkqJf">
    <mxGraphModel>
      <root>
        <mxCell id="0" />
        <mxCell id="1" parent="0" />
      </root>
    </mxGraphModel>
  </diagram>
</mxfile>
